<?xml version="1.0" encoding="UTF-8"?><svg width="38px" height="38px" viewBox="0 0 38 38" version="1.1" xmlns="http://www.w3.org/2000/svg" xmlns:xlink="http://www.w3.org/1999/xlink"><title>形状结合</title><g id="直播首页" stroke="none" stroke-width="1"><g id="首页—浅色头部" transform="translate(-1738.000000, -15.000000)"><g id="编组-2" transform="translate(1738.000000, 15.000000)"><path d="M19.000116,0 C29.493454,0 38,8.50654603 38,19.000116 C38,29.493454 29.493454,38 19.000116,38 C8.50654603,38 0,29.493454 0,19.000116 C0,8.50654603 8.50654603,0 19.000116,0 Z M18.2242962,7.02412365 C17.033948,7.16498569 15.9500021,7.77860774 15.2165282,8.72703502 C14.2559999,9.91142029 13.6561618,11.3470971 13.4884491,12.8628645 C13.4002532,13.6607109 13.3729926,14.1649723 13.3688216,14.4991433 L13.368787,14.680223 C13.3712726,14.8699751 13.3813632,14.9884854 13.3860777,15.0781123 L13.4884491,16.4610361 C13.5927891,17.4155124 13.8432802,18.3482311 14.2309226,19.2266962 C14.6855471,20.0746351 15.3802099,20.7693794 16.227586,21.22418 L16.227586,22.6327534 L13.2837063,24.0924386 C13.061808,24.2034308 12.8443157,24.3272712 12.6309952,24.4637255 L10.0326188,26.1668244 L9.8150797,26.2948851 C9.6394922,26.4056897 9.47252939,26.5299052 9.31578496,26.6661719 C9.09023048,26.8485798 8.88037857,27.049885 8.68866664,27.2678835 C8.49090805,27.497558 8.32319526,27.7514285 8.18955939,28.0234461 C7.88324216,28.6682041 7.95186472,29.4285496 8.36861552,30.0080815 C9.21163242,30.7358375 10.1452086,31.3512883 11.1462355,31.8392411 C16.6619143,35.0368656 23.5477007,34.6597174 28.6815962,30.8789034 C29.0271464,30.6321604 29.3373072,30.3392761 29.6031728,30.0080815 C29.8631792,29.6706973 30.0028617,29.2559889 30,28.8301204 C30.0002837,28.6031656 29.9612851,28.3778989 29.8847409,28.1643081 C29.8064156,27.964269 29.7031067,27.7750619 29.5775331,27.60086 C29.4513501,27.4221096 29.3145737,27.2510026 29.1679539,27.088758 C29.0322556,26.9339692 28.8823078,26.7925445 28.7198917,26.6661719 L28.3231089,26.3587982 C28.2295498,26.2851785 28.1262878,26.2247354 28.0160417,26.1796727 L27.9519659,26.1668244 L25.7632156,24.7326013 C25.4345398,24.519245 25.0925051,24.3267085 24.7393145,24.1565393 L21.7826384,22.7223162 L21.7826384,21.3139303 C22.6009062,20.8250396 23.2831476,20.138173 23.7665054,19.3163059 C24.2145676,18.4595983 24.4721834,17.5160947 24.5217754,16.5505989 L24.5217754,15.4750488 C24.5545867,14.8330105 24.5203223,14.1891903 24.4192634,13.5543264 L24.3297353,12.9397665 C24.3112204,11.3465813 23.6837739,9.82077904 22.576204,8.67578262 C21.4612749,7.47822085 19.8527696,6.86769364 18.2242962,7.02412365 Z" id="形状结合"/></g></g></g></svg>